<svg width="610" height="374" viewBox="0 0 610 374" fill="none" xmlns="http://www.w3.org/2000/svg">
<g clip-path="url(#clip0_4162_4057)">
<path d="M599.282 335.106C596.664 314.048 583.615 293.3 563.535 286.447C571.454 308.121 571.452 331.899 563.53 353.572C560.445 361.919 556.144 370.882 559.046 379.295C560.852 384.53 565.27 388.535 570.208 391.039C575.146 393.544 580.627 394.737 586.039 395.907L587.104 396.788C595.695 377.385 601.901 356.164 599.282 335.106Z" fill="#F0F0F0"/>
<path d="M563.336 286.845C575.03 299.949 582.298 316.405 584.108 333.876C584.564 337.63 584.426 341.433 583.698 345.144C582.873 348.736 581.1 352.041 578.566 354.717C576.252 357.259 573.591 359.591 571.936 362.652C571.112 364.231 570.631 365.966 570.525 367.744C570.418 369.522 570.689 371.303 571.319 372.969C572.78 377.161 575.661 380.578 578.594 383.822C581.85 387.423 585.29 391.112 586.674 395.887C586.841 396.465 587.729 396.171 587.562 395.594C585.153 387.287 577.091 382.568 573.246 375.086C571.451 371.595 570.698 367.542 572.38 363.856C573.851 360.634 576.593 358.226 578.957 355.673C581.469 353.099 583.311 349.949 584.325 346.499C585.239 342.837 585.523 339.046 585.166 335.289C584.496 326.816 582.498 318.502 579.245 310.651C575.583 301.669 570.412 293.381 563.955 286.143C563.555 285.696 562.939 286.4 563.336 286.845H563.336Z" fill="white"/>
<path d="M583.856 328.216C586.745 327.515 589.291 325.808 591.039 323.403C592.787 320.997 593.623 318.048 593.398 315.083C593.35 314.483 592.416 314.529 592.464 315.129C592.679 317.89 591.9 320.637 590.268 322.874C588.635 325.111 586.257 326.691 583.563 327.328C582.977 327.467 583.274 328.355 583.856 328.216Z" fill="white"/>
<path d="M579.908 353.582C574.689 350.466 570.837 345.496 569.118 339.665C568.949 339.087 568.061 339.381 568.23 339.958C570.03 346.023 574.049 351.186 579.488 354.418C580.006 354.725 580.424 353.888 579.908 353.582Z" fill="white"/>
<path d="M574.715 302.555C573.654 303.06 572.484 303.293 571.31 303.233C570.136 303.173 568.996 302.823 567.991 302.214C567.476 301.9 567.059 302.737 567.57 303.049C568.684 303.717 569.944 304.102 571.24 304.171C572.537 304.24 573.831 303.99 575.009 303.443C575.124 303.401 575.219 303.317 575.274 303.207C575.329 303.097 575.341 302.97 575.306 302.853C575.267 302.735 575.182 302.638 575.072 302.582C574.961 302.527 574.833 302.517 574.715 302.555Z" fill="white"/>
<path d="M502.328 324.059C502.644 324.264 502.959 324.469 503.275 324.682C507.504 327.463 511.5 330.584 515.224 334.012C515.516 334.273 515.808 334.541 516.092 334.809C524.975 343.165 532.23 353.097 537.488 364.101C539.576 368.482 541.328 373.016 542.728 377.662C544.662 384.079 546.248 391.191 550.076 396.44C550.469 396.992 550.896 397.52 551.355 398.019H585.947C586.025 397.98 586.104 397.948 586.183 397.909L587.564 397.972C587.509 397.727 587.446 397.474 587.391 397.23C587.359 397.088 587.32 396.946 587.288 396.803C587.265 396.709 587.241 396.614 587.225 396.527C587.217 396.496 587.209 396.464 587.201 396.44C587.186 396.354 587.162 396.275 587.146 396.196C586.799 394.783 586.441 393.37 586.073 391.957C586.073 391.949 586.073 391.949 586.065 391.941C583.231 381.183 579.475 370.566 574.227 360.857C574.069 360.565 573.911 360.265 573.737 359.973C571.347 355.61 568.605 351.45 565.537 347.533C563.85 345.394 562.056 343.342 560.162 341.384C555.258 336.336 549.591 332.09 543.368 328.802C530.961 322.251 516.597 319.741 503.338 323.743C502.999 323.846 502.667 323.948 502.328 324.059Z" fill="#F0F0F0"/>
<path d="M502.406 324.498C519.631 327.919 535.341 336.682 547.303 349.542C549.927 352.264 552.106 355.384 553.759 358.785C555.263 362.15 555.837 365.857 555.424 369.519C555.107 372.942 554.387 376.406 554.907 379.847C555.2 381.604 555.861 383.279 556.846 384.763C557.832 386.246 559.119 387.505 560.625 388.456C564.316 390.923 568.673 391.917 572.967 392.741C577.735 393.656 582.702 394.53 586.682 397.509C587.164 397.87 587.696 397.1 587.214 396.74C580.291 391.558 571.012 392.645 563.438 388.986C559.904 387.279 556.863 384.497 555.987 380.541C555.222 377.082 555.961 373.509 556.312 370.046C556.768 366.479 556.343 362.855 555.075 359.49C553.601 356.015 551.546 352.817 548.998 350.033C543.363 343.671 536.763 338.236 529.44 333.926C521.109 328.96 511.99 325.456 502.478 323.565C501.889 323.448 501.821 324.382 502.406 324.498H502.406Z" fill="white"/>
<path d="M543.695 345.174C545.58 342.874 546.586 339.979 546.533 337.005C546.48 334.032 545.373 331.174 543.408 328.942C543.008 328.492 542.29 329.091 542.69 329.542C544.523 331.617 545.555 334.279 545.598 337.048C545.642 339.817 544.694 342.51 542.926 344.642C542.542 345.105 543.313 345.635 543.695 345.174Z" fill="white"/>
<path d="M346.236 25.7332C345.402 26.7734 344.807 27.9838 344.491 29.2791C344.175 30.5745 344.148 31.9233 344.41 33.2305C344.672 34.5377 345.217 35.7716 346.007 36.8453C346.798 37.9189 347.814 38.8061 348.984 39.4445L343.652 71.4111L359.043 64.5796L361.747 35.2709C362.689 33.2335 362.851 30.9213 362.202 28.7724C361.554 26.6235 360.139 24.7873 358.227 23.6116C356.316 22.436 354.039 22.0026 351.829 22.3936C349.619 22.7847 347.629 23.9729 346.236 25.7332Z" fill="#FFEAD6"/>
<path d="M395.007 241.438L390.303 247.625C390.303 247.625 389.877 250.515 382.742 274.057L378.828 451.005H402.505L434.153 309.426L466.999 453.846L487.524 455.057L486.558 290.908C486.558 290.908 489.151 257.138 479.962 250.867C470.773 244.595 395.007 241.438 395.007 241.438Z" fill="#2F2E41"/>
<path d="M426.759 92.7413C440.481 92.7413 451.604 81.6162 451.604 67.8928C451.604 54.1693 440.481 43.0442 426.759 43.0442C413.037 43.0442 401.914 54.1693 401.914 67.8928C401.914 81.6162 413.037 92.7413 426.759 92.7413Z" fill="#FFEAD6"/>
<path d="M451.754 71.783L451.344 70.9625C450.709 69.6933 445.456 59.1421 444.796 56.4292L438.185 57.207L420.967 57.2097L423.36 53.6207L417.035 54.4458C414.722 54.7268 412.512 55.5602 410.589 56.8755C409.41 57.6592 408.413 58.6873 407.666 59.8902C405.406 63.7598 401.954 70.0891 401.92 70.1527L401.59 70.7582L398.721 65.9324C398.684 65.7451 395.129 47.2008 407.026 40.9116C407.639 39.6651 412.868 29.8609 425.226 30.5227C426.584 28.9739 428.498 28.0225 430.552 27.8745C433.375 27.7273 436.304 29.2099 439.246 32.2998C443.154 36.4037 448.506 42.0239 451.743 48.2641L452.636 49.5383C453.905 51.3619 454.533 53.5547 454.423 55.7736C455.111 59.3148 454.866 62.9739 453.714 66.3922L451.754 71.783Z" fill="#2F2E41"/>
<path d="M445.689 97.4167L459.437 105.016L486.443 112.579L478.382 183.26L479.849 252.883C479.849 252.883 434.136 284.202 390.303 247.625V159.99L392.896 112.579C392.896 112.579 403.385 109.599 408.667 114.74L418.684 101.726L445.689 97.4167Z" fill="#C6D0EB"/>
<path d="M398.953 119.091L392.896 112.579L359.517 108.798L362.649 57.5233L344.45 44.5388L331.08 116.723L392.843 159.99L398.953 119.091Z" fill="#C6D0EB"/>
<path d="M466.616 275.89C466.367 274.581 466.408 273.232 466.737 271.94C467.065 270.648 467.673 269.443 468.517 268.412C469.362 267.38 470.422 266.546 471.623 265.968C472.825 265.391 474.138 265.083 475.471 265.068L485.748 234.333L496.14 247.585L484.788 274.74C484.664 276.981 483.723 279.099 482.143 280.693C480.563 282.287 478.453 283.246 476.213 283.387C473.973 283.529 471.759 282.844 469.99 281.463C468.221 280.081 467.021 278.098 466.616 275.89Z" fill="#FFEAD6"/>
<path d="M476.297 120.67L486.443 112.579C486.443 112.579 496.817 118.302 499.974 128.563C503.131 138.824 508.656 197.235 508.656 197.235L493.66 272.222L476.891 260.59L484.979 201.182L470.773 157.768L476.297 120.67Z" fill="#C6D0EB"/>
<path d="M349.11 0H93.2412V62.1853H349.11V0Z" fill="#E6E6E6"/>
<path d="M99.9546 55.4706H342.396V6.7146H99.9546V55.4706Z" fill="white"/>
<path d="M146.132 49.6675C156.389 49.6675 164.704 41.3512 164.704 31.0926C164.704 20.8341 156.389 12.5178 146.132 12.5178C135.875 12.5178 127.56 20.8341 127.56 31.0926C127.56 41.3512 135.875 49.6675 146.132 49.6675Z" fill="white"/>
<path d="M314.791 23.8242H190.544V27.8622H314.791V23.8242Z" fill="white"/>
<path d="M314.791 34.323H190.544V38.361H314.791V34.323Z" fill="white"/>
<path d="M0 94.5161L216.495 110.31V167.161L0 163.14V94.5161Z" fill="#E6E6E6"/>
<path d="M6.81982 155.898L211.769 160.911V116.13L6.81982 102.383V155.898Z" fill="white"/>
<path d="M51.8021 111.541C54.1683 111.694 56.4725 112.361 58.5542 113.497C60.6421 114.638 62.4943 116.166 64.0124 117.998C65.5899 119.894 66.8256 122.05 67.6641 124.37C68.5488 126.81 69.0002 129.387 68.998 131.983C69.0073 134.539 68.5554 137.077 67.6641 139.473C66.8374 141.698 65.5985 143.748 64.0124 145.514C62.4893 147.211 60.6308 148.574 58.5542 149.516C56.4341 150.468 54.1251 150.925 51.8021 150.853C49.4247 150.777 47.0932 150.178 44.9739 149.098C42.8271 148 40.9139 146.496 39.3403 144.669C37.6893 142.759 36.3932 140.569 35.5131 138.203C34.5793 135.703 34.102 133.057 34.104 130.389C34.0937 127.76 34.5715 125.153 35.5131 122.699C36.3819 120.433 37.682 118.356 39.3413 116.585C40.9217 114.898 42.8417 113.564 44.9748 112.672C47.1345 111.779 49.4699 111.392 51.8021 111.541Z" fill="#E6E6E6"/>
<path d="M92.1245 125.608L191.874 130.807V134.586L92.1245 129.739V125.608Z" fill="#E6E6E6"/>
<path d="M92.1245 136.349L191.874 140.631V144.41L92.1245 140.479V136.349Z" fill="#E6E6E6"/>
<path d="M0 210.005L216.495 205.986V262.837L0 278.63V210.005Z" fill="#E6E6E6"/>
<path d="M6.81982 270.762L211.769 257.015V212.239L6.81982 217.252V270.762Z" fill="white"/>
<path d="M34.1189 241.852C34.224 239.185 34.8079 236.56 35.8426 234.101C36.8143 231.783 38.1957 229.66 39.9204 227.832C41.562 226.086 43.5303 224.679 45.7137 223.692C47.873 222.719 50.2215 222.239 52.5892 222.286C54.9129 222.334 57.1953 222.909 59.2643 223.967C61.2987 225.017 63.0958 226.474 64.5442 228.247C66.0548 230.094 67.2079 232.206 67.9444 234.476C68.7375 236.915 69.0874 239.476 68.9776 242.038C68.878 244.632 68.3257 247.188 67.3457 249.591C66.4188 251.869 65.0992 253.967 63.447 255.788C61.8602 257.546 59.9505 258.982 57.8218 260.019C55.696 261.051 53.3691 261.601 51.0066 261.632C48.6671 261.66 46.3523 261.152 44.2396 260.146C42.146 259.141 40.2865 257.708 38.7815 255.94C37.1987 254.081 35.9871 251.936 35.2123 249.621C34.3733 247.121 34.0026 244.487 34.1189 241.852Z" fill="#E6E6E6"/>
<path d="M92.1245 232.667L191.874 228.736V232.515L92.1245 236.797V232.667Z" fill="#E6E6E6"/>
<path d="M92.1245 243.407L191.874 238.561V242.339L92.1245 247.538V243.407Z" fill="#E6E6E6"/>
</g>
<defs>
<clipPath id="clip0_4162_4057">
<rect width="623" height="481" fill="white"/>
</clipPath>
</defs>
</svg>
