<svg width="603" height="382" viewBox="0 0 603 382" fill="none" xmlns="http://www.w3.org/2000/svg">
<path d="M227.245 45.6095C222.652 28.8779 259.693 14.5303 269.419 28.0042C270.772 26.0887 275.77 24.9251 278.064 25.5127C280.357 26.1003 282.286 27.5694 284.168 28.9915C286.755 30.9777 289.436 33.0343 291.024 35.8902C292.624 38.7343 292.871 42.6126 290.718 45.0806C289.013 47.0433 283.979 48.3125 281.416 48.8297C279.628 49.194 278.122 49.4878 276.829 49.6993C275.676 48.0187 275.088 45.9385 275.3 43.9054C273.559 45.0571 272.383 47.0315 272.195 49.1235C272.16 49.5583 286.649 102.832 286.649 102.832C285.155 103.714 283.309 104.536 281.18 105.288C277.57 99.8471 274.606 93.4303 272.654 86.7196C272.207 90.8683 272.277 95.3694 272.818 99.9411C273.101 102.374 273.524 104.818 274.065 107.263C256.847 110.977 230.949 109.754 219.682 93.9592C219.68 93.8938 219.679 93.8284 219.677 93.763C219.596 90.8074 215.561 90.0729 214.481 92.8257C214.208 93.5225 213.956 94.1257 213.731 94.6055C210.45 82.8765 214.696 69.3024 227.245 45.6095V45.6095Z" fill="#2F2E41"/>
<path d="M461.287 178.29C457.213 183.118 449.993 183.733 445.161 179.662C444.693 179.267 444.258 178.836 443.859 178.372L389.484 195.582L381.022 181.723L445.754 161.754C450.832 158.01 457.987 159.089 461.734 164.164C464.869 168.41 464.684 174.25 461.287 178.29H461.287Z" fill="#FFB6B6"/>
<path d="M268.721 135.285C268.721 135.285 292.8 108.22 303.289 119.717C313.779 131.214 346.503 181.593 346.503 181.593L422.893 165.488L430.28 185.634L343.543 213.721C337.022 215.832 329.877 213.643 325.661 208.242L268.721 135.285V135.285Z" fill="white"/>
<path d="M321.02 382H201.586L201.477 381.068L201.408 380.447L200.382 371.751L198.929 359.366L198.369 354.607C198.331 354.366 198.292 354.133 198.261 353.893C197.771 350.795 197.491 347.681 197.39 344.575C197.243 340.305 197.437 336.042 197.895 331.834V331.81C198.144 329.535 198.463 327.284 198.859 325.055C199.356 322.19 199.955 319.372 200.646 316.615C201.439 313.416 202.34 310.303 203.327 307.298C204.461 303.781 205.704 300.411 206.986 297.227C207.126 296.886 207.266 296.544 207.398 296.21L207.406 296.203C214.166 279.734 221.843 268.483 221.843 268.483H308.852C308.852 268.483 312.877 286.132 314.874 300.706C315.192 303.012 315.456 305.233 315.651 307.298C316 311.11 316.101 314.387 315.798 316.615C315.612 317.997 315.27 318.976 314.741 319.426C309.955 323.51 315.433 332.175 315.433 332.175C315.433 332.175 319.536 338.441 315.961 341.966C315.254 342.665 314.85 343.566 314.656 344.575C314.345 346.244 314.617 348.186 315.045 349.902C315.472 351.625 316.062 353.124 316.389 353.893C316.536 354.234 316.63 354.428 316.63 354.428L317.236 359.219L317.826 363.831L318.829 371.751L319.132 373.148L320.693 380.447L320.825 381.068L321.02 382H321.02Z" fill="#2F2E41"/>
<path d="M260.692 98.2568L224.174 101.507L217.444 122.436L210.109 123.498C197.575 125.311 190.115 138.447 194.985 150.13L201.439 165.611C201.439 165.611 191.959 194.851 203.602 207.136L208.557 261.245L197.38 296.916L328.021 301.13L305.768 256.387L305.108 228.606C305.108 228.606 319.328 178.392 306.144 162.42L301.001 116.99L274.202 112.973L260.692 98.2568H260.692Z" fill="white"/>
<path d="M285.414 71.4059C289.177 55.1871 279.071 38.9908 262.84 35.2305C246.61 31.4702 230.402 41.5698 226.639 57.7886C222.876 74.0074 232.983 90.2036 249.213 93.9639C265.443 97.7242 281.651 87.6246 285.414 71.4059Z" fill="#FFB6B6"/>
<path d="M210.779 47.9601C206.187 31.2285 243.227 16.8809 252.954 30.3548C254.307 28.4392 259.305 27.2757 261.598 27.8633C263.892 28.4509 265.82 29.92 267.702 31.3421C270.29 33.3282 272.971 35.3849 274.559 38.2408C276.158 41.0848 276.405 44.9632 274.253 47.4312C272.548 49.3938 267.514 50.6631 264.95 51.1802C263.163 51.5446 261.657 51.8384 260.363 52.0499C259.211 50.3693 258.623 48.2891 258.834 46.256C257.094 47.4077 255.918 49.3821 255.73 51.4741C255.694 51.9089 270.184 105.183 270.184 105.183C268.69 106.064 266.844 106.887 264.715 107.639C261.104 102.198 258.141 95.7809 256.188 89.0702C255.741 93.2188 255.812 97.72 256.353 102.292C256.635 104.724 257.059 107.169 257.6 109.613C240.382 113.327 214.484 112.105 203.217 96.3098C203.215 96.2444 203.213 96.179 203.211 96.1136C203.131 93.158 199.095 92.4235 198.016 95.1763C197.742 95.8731 197.491 96.4763 197.266 96.9561C193.985 85.2271 198.23 71.653 210.779 47.9601L210.779 47.9601Z" fill="#2F2E41"/>
<path d="M468.658 381.068H63.0617L0.124268 381.845L441.512 355.512C456.235 354.634 468.658 366.329 468.658 381.068V381.068Z" fill="#3F3D56"/>
<path d="M507.215 60.6823H403.833C401.449 60.6823 399.509 58.7509 399.509 56.3773C399.509 54.0037 401.449 52.0732 403.833 52.0732H507.215C509.599 52.0732 511.538 54.0037 511.538 56.3773C511.538 58.7509 509.599 60.6823 507.215 60.6823Z" fill="white"/>
<path d="M455.485 74.5662C455.099 73.6146 453.764 73.6147 453.378 74.5664C450.683 81.2066 446.845 88.6427 442.671 94.3256C442.003 95.2354 442.924 96.4512 443.986 96.0673L452.934 92.8326V148.181H455.929V92.8325L464.88 96.0676C465.942 96.4516 466.863 95.2358 466.195 94.3259C462.021 88.643 458.183 81.2066 455.485 74.5662Z" fill="#3F3D56"/>
<path d="M600.335 92.3214H536.597C535.127 92.3214 533.931 91.1306 533.931 89.6672C533.931 88.2038 535.127 87.0137 536.597 87.0137H600.335C601.805 87.0137 603 88.2038 603 89.6672C603 91.1306 601.805 92.3214 600.335 92.3214Z" fill="#F2F2F2"/>
<path d="M568.442 100.88C568.204 100.294 567.381 100.294 567.143 100.881C565.481 104.974 563.115 109.559 560.542 113.063C560.13 113.624 560.698 114.373 561.352 114.136L566.869 112.142V146.266H568.715V112.142L574.234 114.137C574.888 114.373 575.456 113.624 575.044 113.063C572.471 109.559 570.105 104.974 568.442 100.88Z" fill="#F2F2F2"/>
<path d="M568.476 179.193C576.125 179.193 582.326 172.996 582.326 165.353C582.326 157.709 576.125 151.513 568.476 151.513C560.827 151.513 554.626 157.709 554.626 165.353C554.626 172.996 560.827 179.193 568.476 179.193Z" fill="#F2F2F2"/>
<path d="M395.982 13.9005H332.245C330.775 13.9005 329.579 12.7097 329.579 11.2463C329.579 9.78295 330.775 8.59277 332.245 8.59277H395.982C397.452 8.59277 398.648 9.78295 398.648 11.2463C398.648 12.7097 397.452 13.9005 395.982 13.9005Z" fill="#F2F2F2"/>
<path d="M364.09 22.4595C363.851 21.8728 363.029 21.8729 362.79 22.4597C361.129 26.5535 358.763 31.1381 356.189 34.6417C355.777 35.2026 356.345 35.9522 357 35.7155L362.516 33.7212V67.8449H364.363V33.7212L369.881 35.7157C370.536 35.9524 371.104 35.2029 370.692 34.6419C368.119 31.1382 365.752 26.5535 364.09 22.4595H364.09Z" fill="#F2F2F2"/>
<path d="M364.124 100.771C371.773 100.771 377.974 94.5743 377.974 86.9307C377.974 79.2872 371.773 73.0908 364.124 73.0908C356.475 73.0908 350.274 79.2872 350.274 86.9307C350.274 94.5743 356.475 100.771 364.124 100.771Z" fill="#F2F2F2"/>
<path d="M203.551 355.102C206.819 349.697 205.083 342.667 199.673 339.402C199.149 339.085 198.601 338.811 198.033 338.583L196.886 281.598L181.035 278.04L182.892 345.712C180.974 351.72 184.293 358.144 190.306 360.061C195.337 361.665 200.813 359.615 203.551 355.102Z" fill="#FFB6B6"/>
<path d="M214.578 130.276C214.578 130.276 195.153 125.618 188.937 138.817C182.72 152.017 182.191 209.455 182.191 209.455L178.835 325.941L203.475 324.855L223.125 181.522L214.578 130.276Z" fill="white"/>
<path d="M205.859 372.291C206.296 372.839 206.96 373.157 207.661 373.153H333.8C335.082 373.152 336.12 372.112 336.119 370.831C336.119 370.672 336.102 370.513 336.069 370.358L334.111 361.064C333.946 360.294 333.402 359.66 332.666 359.379C332.404 359.276 332.124 359.223 331.842 359.224H209.612C209.33 359.223 209.05 359.276 208.788 359.379C208.052 359.66 207.508 360.294 207.343 361.064L205.385 370.358C205.244 371.041 205.418 371.751 205.859 372.291Z" fill="#CCCCCC"/>
<path d="M157.568 164.234V309.632C157.571 313.49 160.7 316.616 164.561 316.62H380.18C384.041 316.617 387.17 313.49 387.173 309.632V164.234C387.164 160.38 384.037 157.259 380.18 157.254H164.561C160.704 157.259 157.577 160.38 157.568 164.234Z" fill="#E6E6E6"/>
<path d="M299.334 285.527C299.077 285.441 298.805 285.402 298.533 285.402H248.09C246.606 285.402 245.394 286.606 245.394 288.089V367.721H301.222V288.089C301.222 286.916 300.46 285.876 299.334 285.527ZM279.1 324.691C279.085 327.983 276.404 330.638 273.11 330.623C269.838 330.599 267.197 327.959 267.181 324.691V315.451C267.212 312.166 269.908 309.527 273.195 309.558C276.443 309.589 279.069 312.213 279.1 315.451V324.691Z" fill="#CCCCCC"/>
</svg>
